# xmcd CD database file
#
# Track frame offsets:
#	150
#	12777
#	25549
#	39327
#	52235
#	64760
#	78653
#	90380
#	105617
#	119340
#	133790
#	144194
#	157630
#	171827
#
# Disc length: 2475 seconds
#
# Revision: 0
# Processed by: cddbd v1.5.2PL0 Copyright (c) Steve Scherf et al.
# Submitted via: CDex 1.70beta2
#
DISCID=a709a90e
DTITLE=Nat King Cole - With Love - CD 03
DYEAR=2008
DGENRE=Jazz
TTITLE0=After You Get What You Want
TTITLE1=You're Nobody Till Somebody Loves You
TTITLE2=You Call It Madness
TTITLE3=You Should Have Told Me
TTITLE4=I Like To Riff
TTITLE5=If You can't Smile And Say Yes, Please Don't Cry And Say No
TTITLE6=Airiness A La Nat
TTITLE7=Don't Blame Me
TTITLE8=Look What You've Done To Me
TTITLE9=To A Wild Rose
TTITLE10=Sweet Georgia Brown
TTITLE11=Homeward Bound
TTITLE12=I Realise Now
TTITLE13=Barcarolce
EXTD=YEAR: 2008
EXTT0=
EXTT1=
EXTT2=
EXTT3=
EXTT4=
EXTT5=
EXTT6=
EXTT7=
EXTT8=
EXTT9=
EXTT10=
EXTT11=
EXTT12=
EXTT13=
PLAYORDER=
